{"accessors":[{"bufferView":2,"componentType":5126,"count":645,"max":[5.201600074768066,0.8883500099182129,2.1760098934173584],"min":[-4.384329795837402,-0.8883500099182129,-2.9142699241638184],"type":"VEC3"},{"bufferView":2,"byteOffset":7740,"componentType":5126,"count":645,"max":[0.9960310459136963,0.9998579025268555,0.9995844960212708],"min":[-0.9992594718933105,-0.9997944235801697,-0.9999281764030457],"type":"VEC3"},{"bufferView":0,"componentType":5125,"count":1824,"type":"SCALAR"},{"bufferView":2,"byteOffset":15480,"componentType":5126,"count":4,"max":[0.5,0.5,0],"min":[-0.5,-0.5,0],"type":"VEC3"},{"bufferView":2,"byteOffset":15528,"componentType":5126,"count":4,"max":[0,0,1],"min":[0,0,1],"type":"VEC3"},{"bufferView":1,"componentType":5126,"count":4,"max":[1,1],"min":[0,0],"type":"VEC2"},{"bufferView":0,"byteOffset":7296,"componentType":5125,"count":6,"type":"SCALAR"}],"asset":{"extras":{"author":"Chaitanya Krishnan (https://sketchfab.com/chaitanyak)","license":"CC-BY-4.0 (http://creativecommons.org/licenses/by/4.0/)","source":"https://sketchfab.com/3d-models/mid-air-dog-50fc494e091948c39b88e13796826755","title":"Mid Air Dog"},"generator":"Sketchfab-12.68.0","version":"2.0"},"bufferViews":[{"buffer":0,"byteLength":7320,"name":"floatBufferViews","target":34963},{"buffer":0,"byteLength":32,"byteOffset":7320,"byteStride":8,"name":"floatBufferViews","target":34962},{"buffer":0,"byteLength":15576,"byteOffset":7352,"byteStride":12,"name":"floatBufferViews","target":34962}],"buffers":[{"byteLength":22928,"uri":"data:application/octet-stream;base64,"}],"images":[{"uri":"data:application/octet-stream;base64,"}],"materials":[{"doubleSided":true,"name":"Cube_0","pbrMetallicRoughness":{"metallicFactor":0,"roughnessFactor":0.6}},{"alphaMode":"BLEND","doubleSided":true,"name":"shadow","pbrMetallicRoughness":{"baseColorFactor":[0.36636159405194757,0.10434820206047729,0.10434820206047729,1],"baseColorTexture":{"index":0},"metallicFactor":0,"roughnessFactor":0.6}}],"meshes":[{"name":"Cube_0","primitives":[{"attributes":{"NORMAL":1,"POSITION":0},"indices":2,"material":0,"mode":4}]},{"name":"shadow_0","primitives":[{"attributes":{"NORMAL":4,"POSITION":3,"TEXCOORD_0":5},"indices":6,"material":1,"mode":4}]}],"nodes":[{"children":[1],"matrix":[1,0,0,0,0,2.220446049250313e-16,-1,0,0,1,2.220446049250313e-16,0,0,0,0,1],"name":"Sketchfab_model"},{"children":[2,4],"name":"Root"},{"children":[3],"matrix":[1,0,0,0,0,1,0,0,0,0,1,0,0,0,0.81051,1],"name":"Cube"},{"mesh":0,"name":"Cube_0"},{"children":[5],"matrix":[14.096530000000001,0,0,0,0,4.14224,0,0,0,0,4.14224,0,0.35257000000000005,-0.050810000000000015,-3.40037,1],"name":"shadow"},{"mesh":1,"name":"shadow_0"}],"samplers":[{"magFilter":9729,"minFilter":9987,"wrapS":10497,"wrapT":10497}],"scene":0,"scenes":[{"name":"Sketchfab_Scene","nodes":[0]}],"textures":[{"sampler":0,"source":0}]}